<svg xmlns="http://www.w3.org/2000/svg" width="182" height="183" viewBox="0 0 182 183" fill="none"><path d="M90.8839 180.615C41.9333 180.615 2 140.392 2 91.3074C2 42.1236 42.0324 2 90.8839 2C139.834 2 179.768 42.2232 179.768 91.3074C179.867 140.491 139.834 180.615 90.8839 180.615Z" fill="white" stroke="black" stroke-width="3.15" stroke-miterlimit="10"></path><path d="M100.297 86.628C105.846 70.1007 97.8202 31.2714 114.368 35.3534C132.105 39.6346 151.824 62.4344 151.824 92.0044C151.824 116.995 130.52 151.642 90.0912 151.642C58.4814 151.642 45.5997 125.955 53.626 108.731C64.0304 86.4289 94.4511 104.151 100.297 86.628Z" fill="#DDDDDD"></path><path d="M79.8849 126.055C79.8849 128.146 81.0739 129.739 82.6594 129.739H93.8566C95.442 129.739 96.6311 128.146 96.6311 126.055V122.371H79.7858V126.055H79.8849Z" fill="white"></path><path d="M74.2367 117.293C74.2367 119.384 75.4258 120.977 77.0113 120.977H99.6038C101.189 120.977 102.378 119.384 102.378 117.293V113.609H74.1376V117.293H74.2367Z" fill="white"></path><path d="M77.9047 60.8413C75.2293 62.0361 68.1939 66.0186 63.933 74.8796C62.5457 78.0656 61.8521 81.6498 61.8521 85.3337C61.8521 94.8916 66.9057 103.653 75.1302 108.432C75.9229 108.83 76.3193 109.627 76.3193 110.523V112.016H100.497V110.523C100.497 109.627 100.993 108.83 101.686 108.432C109.911 103.653 114.964 94.8916 114.964 85.3337C114.964 70.5984 103.074 58.6509 88.4083 58.6509C85.0392 58.6509 81.7692 59.2483 78.8956 60.4431H78.7965C78.4002 60.5426 78.1029 60.7417 77.9047 60.8413Z" fill="white"></path><path d="M61.7514 87.0263C60.7605 77.767 64.9223 68.8064 66.5077 73.0875C67.2013 75.0788 65.5168 83.442 69.0841 88.221C73.7413 94.4934 81.8667 93.1991 81.8667 101.164C81.8667 107.536 76.3176 110.623 79.1912 117.094C80.6776 120.479 84.7403 122.271 83.8485 125.557C82.9567 128.842 84.3439 130.933 85.2357 131.033C85.2357 131.033 79.1912 130.734 79.0921 121.475C79.0921 121.475 74.6331 120.181 74.6331 116.397C74.6331 112.614 75.1285 108.432 75.1285 108.432C75.1285 108.432 63.7332 105.943 61.7514 87.0263Z" fill="#DDDDDD"></path><path d="M94.4511 113.112C94.4511 113.112 95.5411 118.488 90.1902 119.782V122.57C90.1902 122.57 91.4784 128.245 85.2357 129.141L95.0456 129.838L98.2165 121.475L101.982 118.388V113.112H94.4511Z" fill="#DE070B"></path><path d="M90.1902 99.7702C90.1902 99.7702 93.0638 92.4026 101.982 87.6236C101.982 87.6236 96.9283 85.1345 91.6766 89.5153C86.4248 93.896 90.1902 99.7702 90.1902 99.7702Z" fill="#DE070B"></path><path d="M88.0102 87.524C88.0102 87.524 80.7767 85.1345 75.9212 75.6761C75.9212 75.6761 73.444 80.7538 77.8039 86.0306C82.1639 91.2078 88.0102 87.524 88.0102 87.524Z" fill="#DE070B"></path><path d="M112.188 68.3085C107.036 63.1313 100.198 60.244 92.9647 60.0449C93.0638 61.14 91.082 59.2484 91.1811 60.3435C97.5229 60.5427 103.369 63.1313 107.828 67.6116C112.485 72.291 115.062 81.6499 115.062 88.3206C115.062 97.1816 110.306 103.354 102.676 107.735C102.18 108.034 101.784 110.623 101.784 111.22V113.112H100.991C100.991 114.207 100.991 115.402 100.892 116.497H100.793V118.189C100.793 119.782 100.694 120.877 99.1083 120.877L98.3156 121.873C98.2165 121.873 98.1174 120.877 98.1174 120.877C97.0274 121.375 97.1265 122.769 97.1265 124.163H97.5229V126.851C97.5229 128.444 96.3338 129.539 94.8475 129.539L84.443 129.639C84.443 130.933 84.443 134.02 88.4066 134.02H96.8293C100.198 134.02 102.973 131.232 102.973 127.847V124.86L103.27 124.76C105.747 123.864 107.333 121.574 107.333 118.986V111.718L107.531 111.519C115.656 106.242 120.512 97.3807 120.512 87.9223C120.512 80.7538 117.539 73.5853 112.188 68.3085Z" fill="black"></path><path d="M88.3075 48.396C89.1993 48.396 90.0911 47.6991 90.0911 46.7035V37.6433C90.0911 37.1455 89.8929 36.7472 89.5957 36.4485C89.2984 36.1498 88.803 35.9507 88.4066 35.9507C87.4157 35.9507 86.623 36.7472 86.623 37.7428V46.7035C86.623 47.2013 86.8212 47.5995 87.1184 47.8982C87.4157 48.1969 87.8121 48.396 88.3075 48.396Z" fill="#DDDDDD"></path><path d="M58.8778 58.3523C59.5714 59.0492 60.6614 59.0492 61.355 58.3523C61.6523 58.0536 61.8505 57.5558 61.8505 57.1575C61.8505 56.6597 61.6523 56.2615 61.355 55.9628L55.0132 49.5908C54.716 49.2921 54.2205 49.093 53.8241 49.093C52.8332 49.093 52.1396 49.8895 52.1396 50.7855C52.1396 51.2833 52.3378 51.6816 52.6351 51.9803L58.8778 58.3523Z" fill="#DDDDDD"></path><path d="M40.6452 83.8403C39.7534 83.8403 38.9606 84.6368 38.9606 85.6324C38.9606 86.5285 39.7534 87.325 40.6452 87.325H49.5633C50.0587 87.325 50.4551 87.1258 50.7523 86.8272C51.0496 86.5285 51.2478 86.0306 51.2478 85.6324C51.2478 85.1346 51.0496 84.7363 50.7523 84.4376C50.4551 84.139 49.9596 83.9398 49.5633 83.9398H49.4642H40.6452V83.8403Z" fill="#DDDDDD"></path><path d="M108.522 65.3216C103.072 59.8457 95.9375 56.8588 88.3075 56.8588C82.6594 56.8588 77.2094 58.5514 72.5522 61.6378C72.1558 61.9365 71.8586 62.2352 71.7595 62.733C71.6604 63.1313 71.7595 63.6291 71.9576 64.0273C72.4531 64.8238 73.5431 65.1225 74.3358 64.6247L74.4349 64.5251C78.5967 61.7374 83.353 60.3435 88.3075 60.3435C95.0456 60.3435 101.387 62.9321 106.144 67.7111C110.9 72.4901 113.476 78.8621 113.476 85.5328C113.476 94.4934 108.621 102.857 100.892 107.337C100.397 107.636 100 108.233 100 108.83V111.22H89.5957V102.06H90.0911C90.4875 102.06 90.7848 101.961 91.1811 101.961C91.9738 101.861 92.6675 101.861 93.3611 101.761C99.2074 100.865 103.666 95.7877 103.964 89.814C104.063 88.5197 104.063 87.4245 103.964 86.4289C103.964 85.5328 103.567 85.1346 102.775 85.035C98.1174 84.7363 94.352 85.7319 91.5775 88.0219C91.2802 88.221 91.082 88.4201 90.8839 88.6192L89.4966 89.9136L89.5957 88.6192C89.893 84.7363 89.5957 80.3556 85.2357 76.7713C82.9566 74.8796 80.083 73.7844 76.9121 73.7844C75.9212 73.7844 75.0294 73.7844 74.1376 73.7844C73.0476 73.7844 72.8494 74.3818 72.8494 74.8796C72.2549 80.8534 74.0385 85.2341 78.1012 88.3206C80.083 89.814 82.3621 90.6105 84.8394 90.7101C85.2357 90.7101 85.533 90.7101 85.9294 90.7101H87.0193V111.319H76.6149V108.93C76.6149 108.333 76.3176 107.735 75.7231 107.437C67.994 102.956 63.1386 94.593 63.1386 85.6324C63.1386 80.6542 64.625 75.8753 67.3004 71.6936C67.5977 71.2954 67.6968 70.7976 67.5977 70.3993C67.4986 69.9015 67.3004 69.5033 66.904 69.3041C66.6068 69.105 66.2104 69.0055 65.9131 69.0055C65.814 69.0055 65.715 69.0055 65.6159 69.0055C65.1204 69.105 64.7241 69.3041 64.5259 69.7024L64.4268 69.802C61.2559 74.5809 59.6705 80.0569 59.6705 85.7319C59.6705 95.3895 64.625 104.35 72.8494 109.726L73.0476 109.926V117.293C73.0476 119.882 74.7322 122.271 77.2094 123.167L77.5067 123.267V126.353C77.5067 129.739 80.2812 132.526 83.7494 132.526H92.6675C96.0365 132.526 98.9102 129.739 98.9102 126.353V123.267L99.2074 123.167C101.685 122.271 103.369 119.882 103.369 117.293V109.926L103.567 109.726C111.792 104.35 116.746 95.3895 116.746 85.7319C116.945 77.9661 113.972 70.698 108.522 65.3216ZM93.0638 90.2122C95.3429 88.1214 98.3156 87.1258 100.991 87.6236L101.387 87.7232V88.1214C101.685 91.3074 100.496 94.2943 98.3156 96.5842C96.4329 98.4759 93.8566 99.4715 91.2802 99.4715C90.8839 99.4715 90.4875 99.4715 90.0911 99.372H89.6948V98.9737C89.3975 95.5886 90.5866 92.4026 93.0638 90.2122ZM87.0193 87.7232L86.9203 88.1214L86.5239 88.221C86.1275 88.3206 85.6321 88.3206 85.1366 88.3206C82.7585 88.3206 80.2812 87.3249 78.2994 85.4332C75.9212 83.1433 74.7322 79.9573 75.2276 76.8709L75.3267 76.4726H75.7231C78.894 76.1739 82.0648 77.4683 84.3439 79.9573C86.5239 82.0481 87.5148 84.9354 87.0193 87.7232ZM95.8384 126.055C95.8384 127.648 94.6493 128.942 92.9647 128.942H83.7494C82.1639 128.942 80.8758 127.747 80.8758 126.055V123.167H95.7393V126.055H95.8384ZM100.397 117.094C100.397 118.687 99.2074 119.981 97.5229 119.981H79.0921C77.5067 119.981 76.2185 118.787 76.2185 117.094V114.207H100.297V117.094H100.397Z" fill="black"></path></svg>