<svg xmlns="http://www.w3.org/2000/svg" xmlns:xlink="http://www.w3.org/1999/xlink" id="Capa_1" x="0px" y="0px" viewBox="0 0 182 183" style="enable-background:new 0 0 182 183;" xml:space="preserve"> <style type="text/css"> .st0{fill:#FFFFFF;stroke:#000000;stroke-width:3.2745;stroke-miterlimit:10;} .st1{fill:#DDDDDD;} .st2{fill:none;stroke:#DDDDDD;stroke-width:2.9701;stroke-linecap:round;stroke-miterlimit:10;} .st3{fill:#FFFFFF;} .st4{fill:#DE070B;} </style> <g> <path class="st0" d="M91,180.3L91,180.3c-48.9,0-88.8-40-88.8-88.8v0c0-48.9,40-88.8,88.8-88.8h0c48.9,0,88.8,40,88.8,88.8v0 C179.8,140.4,139.9,180.3,91,180.3z"></path> <g> <path class="st1" d="M83.3,97.2c-5.5,16.4,2.5,55-14,51C51.6,144,31.8,122.7,31.8,92c0-29.6,20.5-59.3,59.7-59.3 c29.2,0,50.4,24.6,42.3,41.7C123.4,96.5,89.1,79.8,83.3,97.2z"></path> <path class="st2" d="M145.6,69.6c3,7,4.6,14.7,4.6,22.8c0,29.8-22.4,54.5-51.2,58"></path> </g> <g> <path class="st3" d="M124.4,71.1c0.7,0,1.3,0.4,1.3-0.4v-5h2.7c0.7,0,1.3-0.6,1.3-1.3v-4.4c0-0.7-0.6-1.3-1.3-1.3H53.6 c-0.7,0-1.3,0.6-1.3,1.3v4.4c0,0.7,0.6,1.3,1.3,1.3h2.7v4c0,0.7,0.6,1.3,1.3,1.3h4v29.6c-2,0.9-3.5,2.7-3.9,4.9 c-3.1,0.6-5.5,3.3-5.5,6.6c0,0.7,0.6,1.3,1.3,1.3h2.7v6.6v0.1c0,0.1,0,0.2,0,0.2c0,0.1,0,0.1,0,0.2c0,0.1,0,0.1,0.1,0.2 c0,0,0,0.1,0.1,0.1c0.1,0.1,0.1,0.2,0.2,0.2c0,0,0.1,0.1,0.1,0.1c0.1,0.1,0.1,0.1,0.2,0.1c0,0,0,0,0.1,0l33.4,14.7 c0.3,0.1,0.7,0.1,1.1,0l33.4-14.7c0,0,0.1,0,0.1-0.1c0.1,0,0.1-0.1,0.2-0.1c0,0,0.1-0.1,0.1-0.1c0,0,0.1-0.1,0.1-0.1 c0.1-0.1,0.1-0.2,0.2-0.3c0,0,0-0.1,0-0.1c0-0.1,0.1-0.1,0.1-0.2c0,0,0,0,0,0c0-0.1,0-0.2,0-0.2c0,0,0-0.1,0-0.1v-6.6h2.7 c0.7,0,1.3-0.6,1.3-1.3c0-3.3-2.4-6-5.5-6.6c-0.4-2.2-1.9-4-3.9-4.9V71.1H124.4z"></path> <g> <path class="st4" d="M91,135.5c0-0.4-5-2.1-5-2.1l31.6-13.9l3.1-0.1v-7.1l3.9-0.2c0,0-0.9-4.1-5.2-4.7c0,0-0.6-4.4-6-5.6l1.4-0.3 V70.2l5.9,0.3v-5.7h4v-4.5h3.5v4.4l-3.5,1.8v3.8l-4.4,1.6v29.8l3.8,4.9l4.9,5.2l-4.3,1.9v6.9L91,135.5z"></path> <path class="st1" d="M98.7,105.2L98.7,105.2c-0.3,0.9-0.8,1.8-1.3,2.6h-0.3c-0.7,0-1.3-0.6-1.3-1.3c0-2.7,1.6-5,4-6.1V70.8 c0-0.7,0.6-1.3,1.3-1.3h1.3v33C100.7,102.6,99.2,103.6,98.7,105.2z"></path> <path d="M83.6,105.2L83.6,105.2c0.3,0.9,0.8,1.8,1.3,2.6h0.3c0.7,0,1.3-0.6,1.3-1.3c0-2.7-1.6-5-4-6.1V70.8 c0-0.7-0.6-1.3-1.3-1.3h-1.3v33C81.6,102.6,83.1,103.6,83.6,105.2z"></path> <path d="M92.3,94.7h-5c-0.7,0-1.3-0.6-1.3-1.3s0.6-1.3,1.3-1.3h5c0.7,0,1.3-0.6,1.3-1.3s-0.6-1.3-1.3-1.3h-2.7c-2.2,0-4-1.8-4-4 s1.8-4,4-4h4.6c0.7,0,1.3,0.6,1.3,1.3S95,84,94.2,84h-4.6c-0.7,0-1.3,0.6-1.3,1.3s0.6,1.3,1.3,1.3h2.7c2.2,0,4,1.8,4,4 S94.6,94.7,92.3,94.7z"></path> <path d="M91,97.4c-0.7,0-1.3-0.6-1.3-1.3v-2.7c0-0.7,0.6-1.3,1.3-1.3s1.3,0.6,1.3,1.3v2.7C92.3,96.8,91.7,97.4,91,97.4z"></path> <path d="M91,84c-0.7,0-1.3-0.6-1.3-1.3v-2.7c0-0.7,0.6-1.3,1.3-1.3s1.3,0.6,1.3,1.3v2.7C92.3,83.3,91.7,84,91,84z"></path> <path d="M64,100.1h13.5c3.7,0,6.7,3,6.7,6.7c0,0.7-0.6,1.3-1.3,1.3H58.6c-0.7,0-1.3-0.6-1.3-1.3C57.3,103.2,60.3,100.1,64,100.1z M81.3,105.5c-0.6-1.6-2.1-2.7-3.8-2.7H64c-1.7,0-3.2,1.1-3.8,2.7H81.3z"></path> <path d="M73.5,69.1h5.4c0.7,0,1.3,0.6,1.3,1.3v31c0,0.7-0.6,0.9-1.3,0.9h-5.4c-0.7,0-1.3-0.2-1.3-0.9v-31 C72.1,69.7,72.7,69.1,73.5,69.1z M77.5,71.8h-2.7v28.3h2.7V71.8z"></path> <path d="M62.7,69.1h5.4c0.7,0,1.3,0.6,1.3,1.3v31c0,0.7-2.3,0.6-3.1,0.6h-3.6c-0.7,0-1.3,0.2-1.3-0.6v-31 C61.3,69.7,61.9,69.1,62.7,69.1z M66.7,71.8H64v28.3h2.7V71.8z"></path> <path d="M104.5,100.1H118c3.7,0,6.7,3,6.7,6.7c0,0.7-0.6,1.3-1.3,1.3H99.1c-0.7,0-1.3-0.6-1.3-1.3 C97.7,103.2,100.8,100.1,104.5,100.1z M121.8,105.5c-0.6-1.6-2.1-2.7-3.8-2.7h-13.5c-1.7,0-3.2,1.1-3.8,2.7H121.8z"></path> <path d="M58.6,105.5h64.7c3.7,0,6.7,3,6.7,6.7c0,0.7-0.6,1.3-1.3,1.3H53.2c-0.7,0-1.3-0.6-1.3-1.3 C51.9,108.5,54.9,105.5,58.6,105.5z M127.2,110.9c-0.6-1.6-2.1-2.7-3.8-2.7H58.6c-1.7,0-3.2,1.1-3.8,2.7H127.2z"></path> <path d="M57.3,110.9h67.4c0.7,0,1.3,0.6,1.3,1.3v8.1c0,0.7-0.6,1.3-1.3,1.3H57.3c-0.7,0-1.3-0.6-1.3-1.3v-8.1 C55.9,111.5,56.5,110.9,57.3,110.9z M123.4,113.6H58.6v5.4h64.7V113.6z"></path> <path d="M57.3,63.7h67.4c0.7,0,1.3,0.6,1.3,1.3v5.4c0,0.7-0.6,1.3-1.3,1.3H57.3c-0.7,0-1.3-0.6-1.3-1.3v-5.4 C55.9,64.3,56.5,63.7,57.3,63.7z M123.4,66.4H58.6v2.7h64.7V66.4z"></path> <path d="M113.9,69.1h5.4c0.7,0,1.3,0.6,1.3,1.3v31c0,0.7-0.6,0.9-1.3,0.9h-5.4c-0.7,0-1.3-0.2-1.3-0.9v-31 C112.6,69.7,113.2,69.1,113.9,69.1z M118,71.8h-2.7v28.3h2.7V71.8z"></path> <path d="M103.1,69.1h5.4c0.7,0,1.3,0.6,1.3,1.3v31c0,0.7-0.6,0.9-1.3,0.9h-5.4c-0.7,0-1.3-0.2-1.3-0.9v-31 C101.8,69.7,102.4,69.1,103.1,69.1z M107.2,71.8h-2.7v28.3h2.7V71.8z"></path> <path d="M53.2,58.3h75.5c0.7,0,1.3,0.6,1.3,1.3v5.4c0,0.7-0.6,1.3-1.3,1.3H53.2c-0.7,0-1.3-0.6-1.3-1.3v-5.4 C51.9,58.9,52.5,58.3,53.2,58.3z M127.4,61H54.6v2.7h72.8V61z"></path> <path d="M57.3,119h67.4c0.7,0,1.4,0.6,1.4,1.3c0,0.5-0.3,1-0.8,1.3l-33.7,14.8c-0.3,0.2-0.7,0.2-1.1,0l-33.7-14.8 c-0.7-0.3-1-1.1-0.7-1.8C56.2,119.3,56.7,119,57.3,119z M118.3,121.7H63.7l27.3,12L118.3,121.7z"></path> </g> </g> </g> </svg>