<svg xmlns="http://www.w3.org/2000/svg" xmlns:xlink="http://www.w3.org/1999/xlink" id="Capa_1" x="0px" y="0px" viewBox="0 0 182 183" style="enable-background:new 0 0 182 183;" xml:space="preserve"> <style type="text/css"> .st0{fill:#FFFFFF;stroke:#000000;stroke-width:3.1186;stroke-miterlimit:10;} .st1{fill:#DDDDDD;} .st2{fill:none;stroke:#DDDDDD;stroke-width:2.9701;stroke-linecap:round;stroke-miterlimit:10;} .st3{fill:#DE070B;} .st4{fill:#FFFFFF;} .st5{stroke:#000000;stroke-width:0.3212;stroke-miterlimit:10;} </style> <g> <path class="st0" d="M91,180.3L91,180.3c-48.9,0-88.8-40-88.8-88.8v0c0-48.9,40-88.8,88.8-88.8h0c48.9,0,88.8,40,88.8,88.8v0 C179.8,140.4,139.9,180.3,91,180.3z"></path> <path class="st1" d="M84.6,86c-5.5-16.4,2.5-55-14-51c-17.7,4.3-36.1,26.9-37.5,56.3c-1.2,26.4,21.3,59.3,61.7,59.3 c31.6,0,53.3-27.5,45.3-44.6C129.7,83.8,90.5,103.4,84.6,86z"></path> <path class="st2" d="M93.3,34.7c6.4,0.2,12.8,1.5,19.1,3.9c15.3,5.9,26.7,17.6,32.6,31.6"></path> <path class="st3" d="M136,89.7c-0.6,0-1.2,0.2-1.7,0.5l-0.7,0.9c0-1.9-0.9,3.1-2.8,3.1c-0.7,0-1.3-7.3-1.9-6.9 c-0.4-1.5-1.7-0.5-3.4-0.5c-1.6,0-3-4.2-3.4-2.7c-0.5-0.3-1.2-0.5-1.9-0.5c-0.4,0-0.8,0.1-1.1,0.2V77c0-0.8,0.4-1.3,0.5-1.5 c0,0,0,0,0.1-0.1c0,0,0,0,0,0c0,0,0,0,0,0c2.2-2.3,3.7-5.6,3.7-9.9v-15c0-1.9-1.6-3.5-3.5-3.5c-0.6,0-1.2,1.3-1.7,1.6l-3.2,0 c0-1.9-0.5-6.7-2.4-6.7c-0.7,0,0.8,1.3,0.3,1.6c-0.4-1.5-2.8-3.7-4.4-3.7c-1.6,0-1.9,0.1-2.3,1.6c-0.5-0.3-1.2-0.5-1.9-0.5 c-1.9,0-3.5,1.6-3.5,3.5v10.3c-0.9-0.8-2.1-1.3-3.4-1.3c-1,0-1.9,0.8-1.9,1.9v13.4c0,3.1,2.2,6.5,5.2,8.6c0,0,0,0,0.1,0.1 c0,0,0.6,0.4,0.6,1V81c-0.3-0.1-0.7-0.2-1-0.2c-0.7,0-1.3,4.5-1.9,4.8c-0.4-1.5-3.9-5.9-5.5-5.9c-1.6,0-0.8,0.1-1.2,1.6 c-0.5-0.3-1.2-0.5-1.9-0.5c-1.9,0-3.5,1.6-3.5,3.5v10.3c-0.5-0.4-1.1-0.8-1.7-1V82.8c0-0.6,0.6,0,0.6,0c0,0,0-1.1,0.1-1.1 c3-2.1,5.2-5.5,5.2-8.6V60.7c0-1-0.8-1.9-1.9-1.9c-1.3,0-2.5-0.6-3.4,0.2v-9.2c0-1.9-1.6-3.5-3.5-3.5c-0.7,0-1.3-0.9-1.9-0.5 c-3.6,0.2-3.4-2-5-2c-1.6,0-1.3,0.5-1.7,2c-0.5-0.4-1.2-0.6-1.9-0.6c-1.9,0-3.5,1.6-3.5,3.5v2.1c-0.5-0.3-1.1-0.5-1.7-0.5 c-1.9,0-3.5,1.6-3.5,3.5V70c0,4.3,1.6,7.6,3.7,9.9c0,0,0,0,0,0c0,0,0,0,0,0c0,0,0,0,0.1,0.1c0.2,0.2,0.5,0.7,0.5,1.5v2.1 c-0.3,0.1-0.7,4.5-1,4.7c-0.4-1.5-1.7-0.5-3.4-0.5c-1.6,0-3-4.2-3.4-2.7c-0.5-0.4-1.2-0.6-1.9-0.6c-1.9,0-3.5,1.6-3.5,3.5v2.1 c-0.5-0.3-1.1-0.5-1.7-0.5c-1.9,0-3.5,1.6-3.5,3.5v16.1c0,4.3,1.6,7.6,3.7,9.9c0,0,0,0,0,0c0,0,0,0,0,0c0,0,0,0,0.1,0.1 c0.2,0.2,1.3,3.7,1.3,4.4c0,0,41.5-20.7,78.8,0c0,0,1.1-0.1,1.8-0.9c0.7-0.8,0.6-2.1,0.6-3.2c0-0.8,0.4-1.3,0.5-1.5 c0,0,0.1-0.1,0.1-0.1c2.2-2.3,3.7-5.5,3.7-9.8v-15C139.5,91.2,137.9,89.7,136,89.7z"></path> <path class="st4" d="M133.8,87.5c-0.6,0-1.2,0.2-1.7,0.5v-2.1c0-1.9-1.6-3.5-3.5-3.5c-0.7,0-1.3,0.2-1.9,0.6 c-0.4-1.5-1.7-2.6-3.4-2.6c-1.6,0-3,1.1-3.4,2.6c-0.5-0.3-1.2-0.5-1.8-0.5c-0.4,0-0.8,0.1-1.1,0.2V76c0-0.8,0.4-1.3,0.5-1.5 c0,0,0,0,0.1-0.1c0,0,0,0,0,0c0,0,0,0,0,0c2.1-2.3,3.7-5.6,3.7-9.9v-16c0-1.9-1.6-3.5-3.5-3.5c-0.6,0-1.2,0.2-1.7,0.5v-2.1 c0-1.9-1.6-3.5-3.5-3.5c-0.7,0-1.3,0.2-1.9,0.6c-0.4-1.5-1.7-2.6-3.4-2.6c-1.6,0-3,1.1-3.4,2.6c-0.5-0.3-1.2-0.5-1.8-0.5 c-1.9,0-3.5,1.6-3.5,3.5v10.2c-0.9-0.8-2.1-1.3-3.4-1.3c-1,0-1.8,0.8-1.8,1.8v13.3c0,3.1,2.2,6.5,5.1,8.6c0,0,0,0,0.1,0.1 c0,0,0.6,0.4,0.6,1V80c-0.3-0.1-0.7-0.2-1-0.2c-0.7,0-1.3,0.2-1.9,0.6c-0.4-1.5-1.7-2.6-3.4-2.6c-1.6,0-3,1.1-3.4,2.6 c-0.5-0.3-1.2-0.5-1.8-0.5c-1.9,0-3.5,1.6-3.5,3.5v10.2c-0.5-0.4-2.1-0.8-2.8-1v-9.7c0-0.6,1.3-2.3,1.3-2.3c0,0,0.3-2,0.2-0.1 c2.9-2.1,4.9-4.6,4.9-7.7l0.5-12.9c0-1-0.8-1.8-1.8-1.8c-1.3,0-2.5,0.5-3.4,1.3V48.9c0-1.9-1.6-3.5-3.5-3.5c-0.7,0-1.3,0.2-1.8,0.5 c-0.4-1.5-1.7-2.6-3.4-2.6c-1.6,0-3,1.1-3.4,2.6c-0.5-0.3-1.2-0.6-1.9-0.6c-1.9,0-3.5,1.6-3.5,3.5V51c-0.5-0.3-1.1-0.5-1.7-0.5 c-1.9,0-3.5,1.6-3.5,3.5v15c0,4.3,1.6,8,3.7,10.3c0,0,0.7-0.1,0.7-0.1c0,0-0.8-1.2-0.8-1.2c0,0,0.1,0.8,0.2,0.8 c0.2,0.2,1.2,1.8,1.2,2.6l-0.6,2.2c-0.3,0.1-0.7,0.2-1,0.4c-0.4-1.5-1.7-2.6-3.4-2.6c-1.6,0-3,1.1-3.4,2.6 c-0.5-0.3-1.2-0.6-1.9-0.6c-1.9,0-3.5,1.6-3.5,3.5V89c-0.5-0.3-1.1-0.5-1.7-0.5c-1.9,0-3.5,1.6-3.5,3.5v16c0,4.3,1.6,7.6,3.7,9.9 c0,0,0,0,0,0c0,0,0,0,0,0c0,0,0,0,0.1,0.1c0.2,0.2,0.5,0.7,0.5,1.5v9.1c0,0.5,0.4,0.9,0.9,0.9c0.4,0,0.7-0.3,0.8-0.6 c1.9,2.5,6.9,7.4,14.2,6.2v1.2c0,0.5,0.4,0.9,0.9,0.9s0.5-14.3,0.5-14.8c0,0,4.7,8.2,17.2,7.9c0,0,0.2,14.1,0.2,14.1 c0,0.5-0.4,1.5,0.1,1.5c0.5,0,0.9-0.4,0.9-0.9v-0.4c2.2,1.4,8,4.1,14.1-0.2v0.6c0,0.5,0.4,0.9,0.9,0.9c0.5,0,0.3-14.8,0.6-15.2 c10.3-1,13.7-8.4,13.7-8.4c0,0.5-0.4,15.5,0.1,15.5c0.5,0,0.9-0.4,0.9-0.9v-1.9c2.5,0,9.7-0.8,14.1-10.6v0.2c0,0.5,0.4,0.9,0.9,0.9 s0.9-0.4,0.9-0.9v-6c0-0.8,0.4-1.3,0.5-1.5c0,0,0,0,0.1-0.1c0,0,0,0,0,0c0,0,0,0,0,0c2.1-2.3,3.7-5.6,3.7-9.9V91 C137.3,89,135.8,87.5,133.8,87.5z"></path> <path class="st1" d="M68.3,55.1c0,0,0,12.2,0,15.7c0,2.2-0.1,4.9,2.2,6.6c1.6,1.2,1.8,3.9,0.9,5.5c0,0-7.7-3-7.7-10 c0-7,0-12.9,0-16S68.3,55.1,68.3,55.1z"></path> <path class="st1" d="M55.6,90c0,0,0,12.2,0,15.7c0,2.2-0.1,4.9,2.2,6.6c1.6,1.2,1.8,3.9,0.9,5.5c0,0-7.7-3-7.7-10c0-7,0-12.9,0-16 C51.1,88.7,55.6,90,55.6,90z"></path> <path class="st1" d="M115.6,46.8c0,0,0,13.1,0,16.9c0,2.4,0.1,5.4-2.3,7.2c-1.8,1.3-2,4.2-1,6c0,0,8.3-3.2,8.3-10.8s0-14,0-17.3 S115.6,46.8,115.6,46.8z"></path> <path class="st1" d="M131.9,89.1c0,0,0,13.1,0,16.9c0,2.4,0.1,5.4-2.3,7.2c-1.8,1.3-2,4.2-1,6c0,0,8.3-3.2,8.3-10.8s0-14,0-17.3 C136.8,87.7,131.9,89.1,131.9,89.1z"></path> <path class="st1" d="M101.4,86.2c0,0,0,13.1,0,16.9c0,2.4,0.1,5.4-2.3,7.2c-1.8,1.3-2,4.2-1,6c0,0,8.3-3.2,8.3-10.8 c0-7.6,0-14,0-17.3C106.4,84.8,101.4,86.2,101.4,86.2z"></path> <path class="st5" d="M134,87.5c-0.6,0-1.2,0.2-1.7,0.5v-2.1c0-1.9-1.6-3.5-3.5-3.5c-0.7,0-1.3,0.2-1.9,0.6 c-0.4-1.5-1.7-2.6-3.4-2.6c-1.6,0-3,1.1-3.4,2.6c-0.5-0.3-1.2-0.5-1.9-0.5c-0.4,0-0.8,0.1-1.1,0.2v-6.6c0-0.8,0.4-1.3,0.5-1.5 c0,0,0,0,0.1-0.1c0,0,0,0,0,0c0,0,0,0,0,0c2.2-2.3,3.7-5.6,3.7-9.9V48.3c0-1.9-1.6-3.5-3.5-3.5c-0.6,0-1.2,0.2-1.7,0.5v-2.1 c0-1.9-1.6-3.5-3.5-3.5c-0.7,0-1.3,0.2-1.9,0.6c-0.4-1.5-1.7-2.6-3.4-2.6c-1.6,0-3,1.1-3.4,2.6c-0.5-0.3-1.2-0.5-1.9-0.5 c-1.9,0-3.5,1.6-3.5,3.5v10.3c-0.9-0.8-2.1-1.3-3.4-1.3c-1,0-1.9,0.8-1.9,1.9v13.4c0,3.1,2.2,6.5,5.2,8.6c0,0,0,0,0.1,0.1 c0,0,0.6,0.4,0.6,1v2.6c-0.3-0.1-0.7-0.2-1-0.2c-0.7,0-1.3,0.2-1.9,0.6c-0.4-1.5-1.7-2.6-3.4-2.6c-1.6,0-3,1.1-3.4,2.6 c-0.5-0.3-1.2-0.5-1.9-0.5c-1.9,0-3.5,1.6-3.5,3.5v10.3c-0.5-0.4-1.1-0.8-1.7-1V82.1c0-0.6,0.6-1,0.6-1c0,0,0,0,0.1-0.1 c3-2.1,5.2-5.5,5.2-8.6V59c0-1-0.8-1.9-1.9-1.9c-1.3,0-2.5,0.5-3.4,1.3V48.1c0-1.9-1.6-3.5-3.5-3.5c-0.7,0-1.3,0.2-1.9,0.5 c-0.4-1.5-1.7-2.6-3.4-2.6c-1.6,0-3,1.1-3.4,2.6c-0.5-0.4-1.2-0.6-1.9-0.6c-1.9,0-3.5,1.6-3.5,3.5v2.1c-0.5-0.3-1.1-0.5-1.7-0.5 c-1.9,0-3.5,1.6-3.5,3.5v16.1c0,4.3,1.6,7.6,3.7,9.9c0,0,0,0,0,0c0,0,0,0,0,0c0,0,0,0,0.1,0.1c0.2,0.2,0.5,0.7,0.5,1.5v2.7 c-0.3,0.1-0.7,0.2-1,0.4c-0.4-1.5-1.7-2.6-3.4-2.6c-1.6,0-3,1.1-3.4,2.6c-0.5-0.4-1.2-0.6-1.9-0.6c-1.9,0-3.5,1.6-3.5,3.5v2.1 c-0.5-0.3-1.1-0.5-1.7-0.5c-1.9,0-3.5,1.6-3.5,3.5V108c0,4.3,1.6,7.6,3.7,9.9c0,0,0,0,0,0c0,0,0,0,0,0c0,0,0,0,0.1,0.1 c0.2,0.2,0.5,0.7,0.5,1.5v9.1c0,0.5,0.4,0.9,0.9,0.9s0.9-0.4,0.9-0.9V120c1.1,0.8,2.3,1.3,3.4,1.7c0.1,0,0.2,0,0.3,0 c0.4,0,0.7-0.2,0.8-0.6c0.2-0.5-0.1-1-0.6-1.1c-0.8-0.3-8.3-3-8.3-12V91.9c0-1,0.8-1.7,1.7-1.7c1,0,1.7,0.8,1.7,1.7v9.6 c0,0.5,0.4,0.9,0.9,0.9s0.9-0.4,0.9-0.9V86.8c0-1,0.8-1.7,1.7-1.7c1,0,1.7,0.8,1.7,1.7v11.8c0,0.5,0.4,0.9,0.9,0.9c0,0,0,0,0,0 c0,0,0,0,0,0c0.5,0,0.9-0.4,0.9-0.9V84.8c0-1,0.8-1.7,1.7-1.7c1,0,1.7,0.8,1.7,1.7v13.9c0,0.5,0.4,0.9,0.9,0.9 c0.5,0,0.9-0.4,0.9-0.9V86.8c0-1,0.8-1.7,1.7-1.7c1,0,1.7,0.8,1.7,1.7v18.5c-1.8,0.3-5.8,1.7-6.7,7.6c-0.1,0.5,0.2,0.9,0.7,1 c0.5,0.1,0.9-0.2,1-0.7c1-6.1,5.7-6.2,5.9-6.2c0.5,0,0.9-0.4,0.9-0.9V101c0-1.9,1.5-3.4,3.4-3.4c0.1,0,0.1,0,0.1,0.1v13.4 c0,2.6-2,5.6-4.6,7.3c0,0,0,0,0,0c-1.2,0.8-2.5,1.4-3.8,1.5c-0.5,0.1-0.8,0.5-0.8,1c0.1,0.4,0.4,0.8,0.9,0.8c0,0,0.1,0,0.1,0 c0.8-0.1,1.5-0.3,2.2-0.6V133l0,0v3.4c0,0.5,0.4,0.9,0.9,0.9s0.9-0.4,0.9-0.9v-8.4c0,0,0,0,0,0v-7.1c0-0.6,0.6-1,0.6-1 c0,0,0,0,0.1-0.1c3-2.1,5.2-5.5,5.2-8.6V97.7c0-1-0.8-1.9-1.9-1.9c-1.3,0-2.5,0.5-3.4,1.3V86.8c0-0.7-0.2-1.4-0.6-1.9v-2.5 c0.5,0.2,0.9,0.4,1.4,0.5c0.1,0,0.2,0,0.3,0c0.4,0,0.7-0.2,0.8-0.6c0.2-0.5-0.1-1-0.6-1.1c-0.8-0.3-8.3-3-8.3-12V53.2 c0-1,0.8-1.7,1.7-1.7c1,0,1.7,0.8,1.7,1.7v9.6c0,0.5,0.4,0.9,0.9,0.9c0.5,0,0.9-0.4,0.9-0.9V48.1c0-1,0.8-1.7,1.7-1.7 s1.7,0.8,1.7,1.7v11.8c0,0.5,0.4,0.9,0.9,0.9c0,0,0,0,0,0c0,0,0,0,0,0c0.5,0,0.9-0.4,0.9-0.9V46c0-1,0.8-1.7,1.7-1.7 c1,0,1.7,0.8,1.7,1.7v13.9c0,0.5,0.4,0.9,0.9,0.9c0.5,0,0.9-0.4,0.9-0.9V48.1c0-1,0.8-1.7,1.7-1.7c1,0,1.7,0.8,1.7,1.7v18.5 C79.9,67,75.9,69,75,74.9c-0.1,0.5,0.2,0.9,0.7,1c0.5,0.1,0.9-0.2,1-0.7c1-6.1,5.7-6.9,5.9-6.9c0.5,0,0.9-0.4,0.9-0.9v-5.2 c0-1.9,1.5-3.4,3.4-3.4c0.1,0,0.1,0,0.1,0.1v13.4c0,2.6-2,5.6-4.6,7.3c0,0,0,0,0,0c-1.2,0.8-2.5,1.4-3.8,1.5 c-0.5,0.1-0.8,0.5-0.8,1c0.1,0.4,0.4,0.8,0.9,0.8c0,0,0.1,0,0.1,0c0.8-0.1,1.5-0.3,2.2-0.6v9.9c-1,0-1.8,0.9-1.8,1.8v13.4 c0,3.1,2.2,6.5,5.2,8.6c0,0,0,0,0.1,0.1c0,0,0.6,0.4,0.6,1v27.9c0,0.5,0.4,0.9,0.9,0.9c0.5,0,0.9-0.4,0.9-0.9v-27.6 c0.7,0.3,1.5,0.5,2.2,0.6c0,0,0.1,0,0.1,0c0.4,0,0.8-0.3,0.9-0.8c0.1-0.5-0.3-0.9-0.8-1c-1.3-0.2-2.6-0.7-3.8-1.5c0,0,0,0,0,0 c-2.6-1.8-4.6-4.7-4.6-7.3V94.1c0-0.1,0-0.1,0.1-0.1c1.9,0,3.4,1.5,3.4,3.4v5.2c0,0.4,0.3,0.8,0.8,0.9c0,0,0.1,0,0.1,0 c0.2,0,4.9,0.1,5.9,6.2c0.1,0.5,0.5,0.8,1,0.7c0.5-0.1,0.8-0.5,0.7-1c-1-5.9-5-7.3-6.7-7.6v-4.4V83.2c0-1,0.8-1.7,1.7-1.7 c1,0,1.7,0.8,1.7,1.7V95c0,0.5,0.4,0.9,0.9,0.9c0.5,0,0.9-0.4,0.9-0.9V83.2v-2.1c0-1,0.8-1.7,1.7-1.7c1,0,1.7,0.8,1.7,1.7V95 c0,0.5,0.4,0.9,0.9,0.9c0,0,0,0,0,0c0,0,0,0,0,0c0.5,0,0.9-0.4,0.9-0.9V83.2c0-1,0.8-1.7,1.7-1.7c1,0,1.7,0.8,1.7,1.7v5.1v7.5v2.1 c0,0.5,0.4,0.9,0.9,0.9s0.9-0.4,0.9-0.9v-2.1v-7.5c0-1,0.8-1.7,1.7-1.7c1,0,1.7,0.8,1.7,1.7v16.1c0,9-7.4,11.7-8.3,12 c-0.5,0.2-0.7,0.7-0.6,1.1c0.1,0.4,0.5,0.6,0.8,0.6c0.1,0,0.2,0,0.3,0c1.1-0.4,2.3-0.9,3.4-1.7v28.7c0,0.5,0.4,0.9,0.9,0.9 c0.5,0,0.9-0.4,0.9-0.9v-29.2c0-0.8,0.4-1.3,0.5-1.5c0,0,0,0,0.1-0.1c0,0,0,0,0,0c0,0,0,0,0,0c2.2-2.3,3.7-5.6,3.7-9.9V88.3 c0-1.9-1.6-3.5-3.5-3.5c-0.3,0-0.5,0-0.8,0.1V78c0.2,0,0.4,0.1,0.6,0.1c0,0,0.1,0,0.1,0c0.4,0,0.8-0.3,0.9-0.8 c0.1-0.5-0.3-0.9-0.8-1c-1.3-0.2-2.6-0.7-3.8-1.5c0,0,0,0,0,0c-2.6-1.8-4.6-4.7-4.6-7.3V54.1c0-0.1,0-0.1,0.1-0.1 c1.9,0,3.4,1.5,3.4,3.4v5.2c0,0.4,0.3,0.8,0.8,0.9c0,0,0.1,0,0.1,0c0.2,0,4.9,0.1,5.9,6.2c0.1,0.5,0.5,0.8,1,0.7 c0.5-0.1,0.8-0.5,0.7-1c-1-5.9-5-7.3-6.7-7.6V43.2c0-1,0.8-1.7,1.7-1.7c1,0,1.7,0.8,1.7,1.7V55c0,0.5,0.4,0.9,0.9,0.9 c0.5,0,0.9-0.4,0.9-0.9V41.2c0-1,0.8-1.7,1.7-1.7c1,0,1.7,0.8,1.7,1.7V55c0,0.5,0.4,0.9,0.9,0.9c0,0,0,0,0,0c0,0,0,0,0,0 c0.5,0,0.9-0.4,0.9-0.9V43.2c0-1,0.8-1.7,1.7-1.7s1.7,0.8,1.7,1.7V58c0,0.5,0.4,0.9,0.9,0.9c0.5,0,0.9-0.4,0.9-0.9v-9.6 c0-1,0.8-1.7,1.7-1.7c1,0,1.7,0.8,1.7,1.7v16.1c0,9-7.4,11.7-8.3,12c-0.5,0.2-0.7,0.7-0.6,1.1c0.1,0.4,0.5,0.6,0.8,0.6 c0.1,0,0.2,0,0.3,0c1.1-0.4,2.3-0.9,3.4-1.7v7.5c-0.4,0.6-0.6,1.2-0.6,2v10.3c-0.9-0.8-2.1-1.3-3.4-1.3c-1,0-1.9,0.8-1.9,1.9v13.4 c0,3.1,2.2,6.5,5.2,8.6c0,0,0,0,0.1,0.1c0,0,0.6,0.4,0.6,1v17.1c0,0.5,0.4,0.9,0.9,0.9s0.9-0.4,0.9-0.9v-16.8 c0.7,0.3,1.5,0.5,2.2,0.6c0,0,0.1,0,0.1,0c0.4,0,0.8-0.3,0.9-0.8c0.1-0.5-0.3-0.9-0.8-1c-1.3-0.2-2.6-0.7-3.8-1.5c0,0,0,0,0,0 c-2.6-1.8-4.6-4.7-4.6-7.3V96.7c0-0.1,0-0.1,0.1-0.1c1.9,0,3.4,1.5,3.4,3.4v5.2c0,0.5,0.4,0.9,0.9,0.9c0.2,0,4.9,0.1,5.9,6.2 c0.1,0.5,0.5,0.8,1,0.7c0.5-0.1,0.8-0.5,0.7-1c-1-5.9-5-7.3-6.7-7.6V100V85.8c0-1,0.8-1.7,1.7-1.7c1,0,1.7,0.8,1.7,1.7v11.8 c0,0.5,0.4,0.9,0.9,0.9c0.5,0,0.9-0.4,0.9-0.9V85.8v-2.1c0-1,0.8-1.7,1.7-1.7c1,0,1.7,0.8,1.7,1.7v13.9c0,0.5,0.4,0.9,0.9,0.9 c0,0,0,0,0,0c0,0,0,0,0,0c0.5,0,0.9-0.4,0.9-0.9V85.8c0-1,0.8-1.7,1.7-1.7c1,0,1.7,0.8,1.7,1.7v5.1v7.5v2.1c0,0.5,0.4,0.9,0.9,0.9 s0.9-0.4,0.9-0.9v-2.1v-7.5c0-1,0.8-1.7,1.7-1.7c1,0,1.7,0.8,1.7,1.7V107c0,9-7.4,11.7-8.3,12c-0.5,0.2-0.7,0.7-0.6,1.1 c0.1,0.4,0.5,0.6,0.8,0.6c0.1,0,0.2,0,0.3,0c1.1-0.4,2.3-0.9,3.4-1.7v5.6c0,0.5,0.4,0.9,0.9,0.9s0.9-0.4,0.9-0.9v-6.1 c0-0.8,0.4-1.3,0.5-1.5c0,0,0,0,0.1-0.1c0,0,0,0,0,0c0,0,0,0,0,0c2.2-2.3,3.7-5.6,3.7-9.9V90.9C137.5,89,136,87.5,134,87.5z"></path> </g> </svg>